# xmcd
#
# Track frame offsets:
#	150
#	13392
#	40398
#	50478
#	65005
#	98777
#	113839
#	130382
#	148181
#	167154
#	179473
#	192814
#
# Disc length: 2789 seconds
#
# Revision: 0
# Processed by: cddbd v1.5.1PL0 Copyright (c) Steve Scherf et al.
# Submitted via: dBpowerAMP V4.0
#
DISCID=b50ae30c
DTITLE=Varios - Canción Social Vol 2. (Disco 3)
DYEAR=1900
DGENRE=
TTITLE0=Mercedes Sosa - Me Gustan Los Estudiantes
TTITLE1=Pablo Milanés - Cuanto Gané, Cuanto Perdí
TTITLE2=Quilapayun - Que la Tortilla Se Vuelva
TTITLE3=Víctor Jara - Plegaria a Un Labrador
TTITLE4=Jorge Cafrune - Coplas de Payador Perseguido
TTITLE5=America Libre - Canción Para una Flor
TTITLE6=Inti Illimani - Señora Chichera
TTITLE7=Ana Belén - La Muralla
TTITLE8=Horacio Guaraní - Perdón Doctor
TTITLE9=Quilapayún - Que Dirá EL Santo Padre
TTITLE10=Violeta Parra - La Carta
TTITLE11=Angel Parra - Vasija de Barro
EXTD=
EXTT0=
EXTT1=
EXTT2=
EXTT3=
EXTT4=
EXTT5=
EXTT6=
EXTT7=
EXTT8=
EXTT9=
EXTT10=
EXTT11=
PLAYORDER=
